<?xml version="1.0" encoding="UTF-8"?>
<svg width="163px" height="100px" viewBox="0 0 163 100" version="1.1" xmlns="http://www.w3.org/2000/svg" xmlns:xlink="http://www.w3.org/1999/xlink">
    <!-- Generator: Sketch 59 (86127) - https://sketch.com -->
    <title>Group 12</title>
    <desc>Created with Sketch.</desc>
    <g id="Webpages" stroke="none" stroke-width="1" fill="none" fill-rule="evenodd">
        <g id="Desktop-HD-Copy-2" transform="translate(-764.000000, -3199.000000)" fill="#A7007B" fill-rule="nonzero">
            <g id="Group-9" transform="translate(294.000000, 2988.000000)">
                <g id="Group-12" transform="translate(470.000000, 211.000000)">
                    <path d="M61.8090874,67.6051738 C61.8090874,84.2761955 48.5908789,97.7266789 32.2077473,97.7266789 C15.8246157,97.7266789 2.6064073,84.2761955 2.6064073,67.6051738 C2.6064073,50.9341521 15.8246157,37.4836687 32.2077473,37.4836687 L32.2077473,37.4836687 C48.5908789,37.4836687 61.8090874,50.9341521 61.8090874,67.6051738 Z M32.2077473,34.8314607 C14.5214121,34.8314607 1.13686838e-13,49.4186047 1.13686838e-13,67.4157303 C1.13686838e-13,85.412856 14.3352401,100 32.0215754,100 C49.7079106,100 64.0431508,85.412856 64.0431508,67.4157303 L64.0431508,67.4157303 C64.2293227,49.6080481 49.8940826,34.8314607 32.2077473,34.8314607 Z" id="Shape"></path>
                    <path d="M160.501045,67.3212832 C160.501045,83.9439831 147.282467,97.3554796 130.898876,97.3554796 C114.515286,97.3554796 101.296708,83.9439831 101.296708,67.3212832 C101.296708,50.6985833 114.515286,37.2870868 130.898876,37.2870868 C147.282467,37.2870868 160.501045,50.8874776 160.501045,67.3212832 C160.501045,67.3212832 160.501045,67.3212832 160.501045,67.3212832 Z M130.898876,34.8314607 C113.212046,34.8314607 98.8764045,49.3763231 98.8764045,67.3212832 C98.8764045,85.2662433 113.212046,100 130.898876,100 C148.585707,100 162.921348,85.4551376 162.921348,67.3212832 C162.921348,49.1874288 148.585707,34.8314607 130.898876,34.8314607 Z" id="Shape"></path>
                    <path d="M82.6324486,85.3932584 L92.3974662,75.0191268 C92.7730438,75.0191268 93.1486215,75.0191268 93.3364103,74.8305062 C93.8997767,74.6418857 94.2753543,74.2646445 94.6509319,73.8874034 L129.955226,68.7946478 C130.143015,69.3605096 130.706382,69.7377507 131.269748,69.7377507 C132.020903,69.7377507 132.58427,69.171889 132.58427,68.4174067 C132.58427,67.851545 132.208692,67.2856833 131.645326,67.0970627 L105.91826,28.0526037 L109.861825,13.1515783 L109.861825,13.1515783 C110.800769,12.2084754 111.364135,10.6995108 111.364135,9.3791668 C115.871066,4.85227301 120.753575,5.22951416 120.753575,3.90917013 C120.753575,2.58882611 119.814631,1.83434381 116.434433,3.15468783 C112.490868,4.28641128 108.359514,4.85227301 104.228161,5.22951416 C93.3364103,4.28641128 92.585255,6.92709933 92.585255,6.92709933 C92.2096774,7.30434048 92.2096774,8.05882278 92.585255,8.43606393 C102.350273,6.92709933 107.232782,9.56778738 107.232782,9.56778738 L107.232782,11.2653725 L107.232782,12.5857166 L103.477006,25.2232951 C103.289217,25.4119157 103.101428,25.7891568 102.913639,25.9777774 C93.5241991,22.9598482 56.9053829,21.0736424 54.839706,20.5077807 C53.7129732,19.1874367 55.2152836,13.9060606 55.4030724,13.9060606 C55.9664389,12.5857166 56.3420165,11.2653725 56.3420165,9.94502852 C56.1542277,9.19054623 53.5251844,9.00192565 52.961818,9.3791668 C52.022874,8.43606393 38.3142916,6.54985818 38.3142916,6.54985818 C38.3142916,6.54985818 30.2393731,6.73847875 29.3004291,2.96606726 C28.3614851,-0.806344236 25.3568643,-0.0518619372 24.9812867,0.325379212 C23.1033987,2.40020553 23.1033987,5.60675531 25.1690755,7.68158163 C25.1690755,7.68158163 25.1690755,7.68158163 25.1690755,7.68158163 C24.7934979,10.6995108 24.7934979,13.71744 25.1690755,16.7353692 C25.1690755,17.8670927 24.6057091,18.8101955 23.8545539,19.3760573 C23.6667651,19.7532984 23.6667651,20.1305396 23.8545539,20.5077807 C24.2301315,20.8850219 26.6713859,18.0557132 26.2958083,18.0557132 C26.1080195,16.9239898 25.9202307,15.7922663 26.1080195,14.6605429 C26.1080195,15.4150252 26.2958083,16.3581281 26.8591747,17.1126104 C27.2347523,17.1126104 27.2347523,15.6036458 27.4225411,14.6605429 C27.4225411,13.71744 27.0469635,12.9629577 26.2958083,12.397096 C26.2958083,11.2653725 26.4835971,10.1336491 26.8591747,9.00192565 C26.8591747,9.00192565 31.9294723,9.94502852 31.5538947,11.6426137 C31.5538947,22.7712276 40.755546,24.6574334 44.8868996,24.6574334 C45.450266,24.2801922 45.8258436,22.2053659 44.8868996,22.2053659 C32.8684163,22.2053659 34.9340931,12.2084754 36.8119811,10.1336491 C38.6898692,8.05882278 52.2106628,12.9629577 52.2106628,12.9629577 L51.4595076,16.5467486 C50.8961412,16.9239898 50.5205636,17.4898515 50.3327748,18.0557132 C50.8961412,18.8101955 46.2014212,32.9567386 46.2014212,34.0884621 C46.2014212,34.8429444 46.38921,35.5974267 46.9525764,36.1632884 C46.9525764,36.1632884 42.0700676,53.5163813 42.4456452,53.7050019 C42.8212228,53.8936224 34.3707267,68.7946478 34.1829379,68.7946478 C34.3707267,68.2287861 34.5585155,67.4743038 34.7463043,66.9084421 C35.6852483,65.5880981 35.3096707,64.2677541 34.7463043,64.2677541 C34.1829379,64.8336158 33.8073603,65.7767187 33.9951491,66.531201 C33.9951491,67.4743038 33.8073603,68.6060273 33.4317827,69.3605096 C33.9951491,68.9832684 34.7463043,69.3605096 35.1218819,69.9263713 C35.1218819,69.9263713 35.1218819,69.9263713 35.1218819,70.1149919 C35.4974595,69.3605096 43.9479556,56.1570693 43.9479556,55.0253459 C45.6380548,53.3277607 49.5816196,35.2201855 50.5205636,34.4657032 C51.6472964,34.8429444 88.0783238,68.7946478 89.768423,72.3784388 C89.768423,72.7556799 89.9562118,73.1329211 90.1440006,73.3215416 L90.1440006,73.3215416 L78.501095,85.2046379 L78.501095,85.2046379 L82.6324486,85.3932584 Z M91.0829446,68.6060273 C91.0829446,68.6060273 53.1496068,28.6184654 52.5862404,28.807086 C52.022874,28.9957066 52.3984516,24.6574334 53.5251844,24.6574334 C53.5251844,24.6574334 84.6981254,22.7712276 101.786906,28.0526037 C102.913639,29.1843271 91.0829446,68.6060273 91.0829446,68.6060273 L91.0829446,68.6060273 Z M95.2142983,71.812577 C95.2142983,71.6239565 95.2142983,71.2467153 95.0265095,71.0580947 L95.0265095,71.0580947 C94.8387207,70.6808536 94.4631431,70.1149919 94.0875655,69.9263713 L104.791527,30.6932917 L130.143015,67.4743038 C130.143015,67.4743038 95.4020871,72.1898182 95.2142983,71.812577 Z" id="Shape"></path>
                    <path d="M33.2036584,68.83196 C32.7153177,69.1372388 32.3897573,69.7477964 32.7153177,70.2057146 C33.0408782,70.6636328 33.6919991,70.9689116 34.1803398,70.6636328 C34.5059002,70.5109934 34.8314607,70.2057146 34.8314607,69.7477964 C34.8314607,69.595157 34.8314607,69.4425176 34.8314607,69.4425176 C34.8314607,69.4425176 34.34312,67.9161236 33.2036584,68.83196 Z" id="Shape"></path>
                    <path d="M83.059637,84.2696629 L78.7381158,84.2696629 C77.5280899,84.2696629 77.5280899,84.2696629 77.5280899,85.2327448 L77.5280899,85.8747994 C77.5280899,86.5168539 77.5280899,86.5168539 78.7381158,86.5168539 L83.059637,86.5168539 C84.2696629,86.5168539 84.2696629,86.5168539 84.2696629,85.8747994 L84.2696629,85.2327448 C84.2696629,84.2696629 84.2696629,84.2696629 83.059637,84.2696629 Z" id="Shape"></path>
                </g>
            </g>
        </g>
    </g>
</svg>