<?xml version="1.0" encoding="UTF-8"?>
<svg width="95px" height="100px" viewBox="0 0 95 100" version="1.1" xmlns="http://www.w3.org/2000/svg" xmlns:xlink="http://www.w3.org/1999/xlink">
    <!-- Generator: Sketch 59 (86127) - https://sketch.com -->
    <title>Combined Shape</title>
    <desc>Created with Sketch.</desc>
    <g id="Webpages" stroke="none" stroke-width="1" fill="none" fill-rule="evenodd">
        <g id="Desktop-HD-Copy-2" transform="translate(-1054.000000, -3199.000000)" fill="#A7007B" fill-rule="nonzero">
            <g id="Group-9" transform="translate(294.000000, 2988.000000)">
                <path d="M807.779653,248.499869 C827.797788,248.499869 844.02663,259.47883 844.02663,273.020783 C844.02663,278.530764 841.339967,283.616746 836.803602,287.711732 C847.867859,290.437722 854.999001,294.704707 855,299.50369 C855,307.737661 843.204651,314.179639 807.780651,309.325656 C807.68477,309.340656 807.595881,309.350656 807.5,309.367656 C807.404119,309.350656 807.31523,309.340656 807.21835,309.325656 C771.796348,314.179639 760,307.737661 760,299.50369 C760,294.704707 767.131142,290.437722 778.194401,287.711732 C773.658035,283.617746 770.971372,278.531764 770.971372,273.020783 C770.971372,259.47783 787.200214,248.499869 807.217351,248.499869 C807.313232,248.499869 807.405118,248.503869 807.499001,248.504869 C807.592885,248.503869 807.68477,248.499869 807.779653,248.499869 Z M833.28697,261.150824 L807.5,269.559795 L781.715028,261.150824 L781.715028,275.771773 C781.838874,275.764773 781.96272,275.751773 782.088564,275.751773 C785.655134,275.751773 788.545543,278.646763 788.545543,282.216751 C788.545543,285.784738 785.655134,288.678728 782.088564,288.678728 C781.96272,288.678728 781.838874,288.666728 781.715028,288.659728 L781.715028,288.659728 L781.715028,295.546704 L807.5,304.537673 L833.28697,295.546704 L833.28697,288.659728 C833.162125,288.666728 833.03728,288.678728 832.912435,288.678728 C829.345865,288.678728 826.453458,285.784738 826.453458,282.216751 C826.453458,278.646763 829.346864,275.751773 832.912435,275.751773 C833.03728,275.751773 833.162125,275.764773 833.28697,275.771773 L833.28697,275.771773 L833.28697,261.150824 Z M807.5,211 C816.598698,211 823.951565,218.443974 823.952564,227.651942 C823.952564,236.84891 816.598698,244.332883 807.5,244.332883 C798.401302,244.332883 791.046437,236.84891 791.047436,227.651942 C791.047436,218.443974 798.401302,211 807.5,211 Z" id="Combined-Shape"></path>
            </g>
        </g>
    </g>
</svg>