<?xml version="1.0" encoding="UTF-8"?>
<svg width="74px" height="83px" viewBox="0 0 74 83" version="1.1" xmlns="http://www.w3.org/2000/svg" xmlns:xlink="http://www.w3.org/1999/xlink">
    <!-- Generator: Sketch 59 (86127) - https://sketch.com -->
    <title>Group 7</title>
    <desc>Created with Sketch.</desc>
    <g id="Webpages" stroke="none" stroke-width="1" fill="none" fill-rule="evenodd">
        <g id="Desktop-HD-Copy-2" transform="translate(-683.000000, -1942.000000)" fill="#FE006A">
            <g id="Group-10" transform="translate(371.000000, 1942.000000)">
                <g id="Group-7" transform="translate(312.000000, 0.000000)">
                    <path d="M68,0 C71.3137085,-6.08718376e-16 74,2.6862915 74,6 L74,77 C74,80.3137085 71.3137085,83 68,83 L6,83 C2.6862915,83 4.05812251e-16,80.3137085 0,77 L0,6 C-4.05812251e-16,2.6862915 2.6862915,6.08718376e-16 6,0 L68,0 Z M67,3 L7,3 C4.790861,3 3,4.790861 3,7 L3,7 L3,76 C3,78.209139 4.790861,80 7,80 L7,80 L67,80 C69.209139,80 71,78.209139 71,76 L71,76 L71,7 C71,4.790861 69.209139,3 67,3 L67,3 Z" id="Combined-Shape"></path>
                    <path d="M37.3355278,9.45833333 L36.7291667,9.45833333 C35.7735139,9.45833333 35,8.68481944 35,7.72916667 C35,6.77351389 35.7735139,6 36.7291667,6 L37.3355278,6 C38.2911806,6 39.0646944,6.77351389 39.0646944,7.72916667 C39.0646944,8.68481944 38.2911806,9.45833333 37.3355278,9.45833333 Z" id="Shape" fill-rule="nonzero"></path>
                    <path d="M36.5005,76.001 C33.4668333,76.001 31,73.5341667 31,70.5005 C31,67.4668333 33.4668333,65 36.5005,65 C39.5341667,65 42.001,67.4668333 42.001,70.5005 C42.001,73.5341667 39.5341667,76.001 36.5005,76.001 Z M36.5005,68.1666667 C35.2137778,68.1666667 34.1666667,69.2137778 34.1666667,70.5005 C34.1666667,71.7872222 35.2137778,72.8343333 36.5005,72.8343333 C37.7872222,72.8343333 38.8343333,71.7872222 38.8343333,70.5005 C38.8343333,69.2137778 37.7872222,68.1666667 36.5005,68.1666667 Z" id="Shape" fill-rule="nonzero"></path>
                </g>
            </g>
        </g>
    </g>
</svg>