<?xml version="1.0" encoding="UTF-8"?>
<svg width="70px" height="70px" viewBox="0 0 70 70" version="1.1" xmlns="http://www.w3.org/2000/svg" xmlns:xlink="http://www.w3.org/1999/xlink">
    <!-- Generator: Sketch 54.1 (76490) - https://sketchapp.com -->
    <title>Group 9 Copy</title>
    <desc>Created with Sketch.</desc>
    <g id="Page-1" stroke="none" stroke-width="1" fill="none" fill-rule="evenodd">
        <g id="Desktop-HD-Copy" transform="translate(-685.000000, -882.000000)" fill="#FFFFFF">
            <g id="Group-9-Copy" transform="translate(720.000000, 917.000000) scale(-1, 1) translate(-720.000000, -917.000000) translate(685.000000, 882.000000)">
                <circle id="Oval" fill-rule="nonzero" opacity="0.300000012" cx="35" cy="35" r="35"></circle>
                <path d="M23.2429351,36.4006965 C22.9599573,36.0227238 22.7924528,35.5527417 22.7924528,35.0408805 C22.7924528,34.5320421 22.9591999,34.0622903 23.2418428,33.6836613 C23.3477445,33.4314546 23.501434,33.1941068 23.7032259,32.9851451 L33.3063058,23.0408648 C34.1773053,22.1389184 35.608487,22.1079645 36.5169888,22.9852946 C37.4192006,23.8565503 37.446531,25.2919148 36.5735036,26.1959611 L30.2251142,32.7699108 L48.0618857,32.7699108 C49.3198451,32.7699108 50.3396226,33.7779143 50.3396226,35.0408805 C50.3396226,36.2951025 49.3265342,37.3118503 48.0618857,37.3118503 L30.2251142,37.3118503 L36.5735036,43.8857999 C37.446531,44.7898462 37.4192006,46.2252107 36.5169888,47.0964664 C35.608487,47.9737965 34.1773053,47.9428426 33.3063058,47.0408962 L23.7032259,37.0966159 C23.5021267,36.8883715 23.3488002,36.6519356 23.2429351,36.4006965 Z" id="Back-Arrow-(30x30)"></path>
            </g>
        </g>
    </g>
</svg>