<?xml version="1.0" encoding="UTF-8"?>
<svg width="91px" height="85px" viewBox="0 0 91 85" version="1.1" xmlns="http://www.w3.org/2000/svg" xmlns:xlink="http://www.w3.org/1999/xlink">
    <!-- Generator: Sketch 59 (86127) - https://sketch.com -->
    <title>Group 11</title>
    <desc>Created with Sketch.</desc>
    <g id="Webpages" stroke="none" stroke-width="1" fill="none" fill-rule="evenodd">
        <g id="Desktop-HD-Copy-2" transform="translate(-945.000000, -1950.000000)" fill="#FE006A" fill-rule="nonzero">
            <g id="Group-10" transform="translate(371.000000, 1942.000000)">
                <g id="Group-8" transform="translate(575.000000, 9.000000)">
                    <g id="Group-11">
                        <path d="M59.7367012,82.8943928 L29.9014923,82.8943928 C28.9861405,82.8943928 28.1360228,82.4852622 27.5699756,81.7713818 C27.0028794,81.0574932 26.8008699,80.1411289 27.016555,79.2581648 L29.8762395,67.4999012 L59.763007,67.4999012 L62.6226874,79.2581648 C62.8383765,80.1411286 62.6363713,81.057493 62.0692751,81.7713818 C61.5032239,82.4852624 60.6531063,82.8943928 59.7367012,82.8943928 Z M31.5722701,69.6373884 L29.1102936,79.7591385 C29.0303307,80.0910284 29.1713148,80.3331648 29.2628508,80.4500581 C29.3533336,80.56487 29.5585027,80.756906 29.9014923,80.756906 L59.7367012,80.756906 C60.0807522,80.756906 60.2859174,80.56487 60.3763958,80.4479768 C60.4679359,80.3331648 60.60892,80.0910282 60.5289571,79.7591385 L58.0669762,69.6373884 L31.5722701,69.6373884 Z" id="Shape" stroke="#FE006A" stroke-width="0.5"></path>
                        <path d="M85.6401116,69.6373884 L7.3977462,69.6373884 C6.80224596,69.6373884 6.32037043,69.1593756 6.32037043,68.5686408 C6.32037043,67.9779142 6.80224596,67.4999014 7.3977462,67.4999014 L85.6401116,67.4999014 C86.6575193,67.4999014 87.4844909,66.6795592 87.4844909,65.6692624 L87.4844909,59.5198092 L14.5754898,59.5198092 C13.9799854,59.5198092 13.4981098,59.0417965 13.4981098,58.4510699 C13.4981098,57.860335 13.9799854,57.3823223 14.5754898,57.3823223 L89.6392507,57.3823223 L89.6392507,65.6692624 C89.6392507,67.8568415 87.8453687,69.6373884 85.6401116,69.6373884 Z" id="Shape" stroke="#FE006A" stroke-width="0.5"></path>
                        <path d="M5.96898148,55.8263889 C5.54756944,55.8263889 5.12488426,55.6876157 4.77222222,55.4024306 C3.95104167,54.7403935 3.8224537,53.5385417 4.48449074,52.7173611 L15.0949074,39.5619213 C15.7569444,38.7394676 16.9575231,38.6108796 17.7799769,39.2741898 C18.6011574,39.9362269 18.7297454,41.1380787 18.0677083,41.9592593 L7.45601852,55.1146991 C7.07916667,55.5832176 6.52662037,55.8263889 5.96898148,55.8263889 Z" id="Shape"></path>
                        <path d="M25.9153935,49.2480324 C25.5359954,49.2480324 25.1515046,49.1347222 24.8179398,48.8991898 L15.4819444,42.3208333 C14.6200231,41.7135417 14.4137731,40.521875 15.0210648,39.6599537 C15.6283565,38.7980324 16.8200231,38.5905093 17.6819444,39.1990741 L27.0179398,45.7774306 C27.8798611,46.3847222 28.0861111,47.5763889 27.4788194,48.4383102 C27.105787,48.9653935 26.5150463,49.2480324 25.9153935,49.2480324 Z" id="Shape"></path>
                        <path d="M25.9166667,49.2480324 C25.4646991,49.2480324 25.0101852,49.0888889 24.6460648,48.762963 C23.8592593,48.0601852 23.7905093,46.8532407 24.4920139,46.0664352 L36.799537,32.2744213 C37.5023148,31.4876157 38.7079861,31.4175926 39.4960648,32.1203704 C40.2828704,32.8231481 40.3516204,34.0300926 39.6501157,34.8168981 L27.3425926,48.608912 C26.9644676,49.0328704 26.4412037,49.2480324 25.9166667,49.2480324 Z" id="Shape"></path>
                        <path d="M38.2241898,35.4560185 L31.2613426,35.4560185 C30.2059028,35.4560185 29.3516204,34.6017361 29.3516204,33.5462963 C29.3516204,32.4908565 30.2059028,31.6365741 31.2613426,31.6365741 L38.2241898,31.6365741 C39.2796296,31.6365741 40.133912,32.4908565 40.133912,33.5462963 C40.133912,34.6017361 39.2796296,35.4560185 38.2241898,35.4560185 Z" id="Shape"></path>
                        <path d="M38.2241898,42.6696759 C37.16875,42.6696759 36.3144676,41.8153935 36.3144676,40.7599537 L36.3144676,33.5462963 C36.3144676,32.4908565 37.16875,31.6365741 38.2241898,31.6365741 C39.2796296,31.6365741 40.133912,32.4908565 40.133912,33.5462963 L40.133912,40.7599537 C40.133912,41.8153935 39.2796296,42.6696759 38.2241898,42.6696759 Z" id="Shape"></path>
                        <path d="M88.5618666,59.5198092 C87.9663664,59.5198092 87.4844909,59.0417965 87.4844909,58.4510699 L87.4844909,3.9660386 C87.4844909,2.95782917 86.6575195,2.13748501 85.6401116,2.13748501 L3.99913907,2.13748501 C2.98173142,2.13748501 2.15475986,2.95782939 2.15475986,3.9660386 L2.15475986,44.7884304 C2.15475986,45.3791612 1.67288433,45.8571739 1.07737993,45.8571739 C0.481875538,45.8571739 4.97379915e-14,45.3791612 4.97379915e-14,44.7884304 L4.97379915e-14,3.9660386 C4.97379915e-14,1.77845512 1.79387786,-2.13162821e-14 3.99913907,-2.13162821e-14 L85.6401075,-2.13162821e-14 C87.8453645,-2.13162821e-14 89.6392466,1.77845512 89.6392466,3.9660386 L89.6392466,58.4510721 C89.6392507,59.0417965 89.1573752,59.5198092 88.5618666,59.5198092 Z" id="Shape" stroke="#FE006A" stroke-width="0.5"></path>
                        <path d="M47.4592108,8.53353598 L40.877634,8.53353598 C40.3236188,8.53353598 39.8753189,7.89348275 39.8753189,7.1025015 C39.8753189,6.31152025 40.3236188,5.67146702 40.877634,5.67146702 L47.4592108,5.67146702 C48.013226,5.67146702 48.4615258,6.31152025 48.4615258,7.1025015 C48.4615258,7.89348275 48.0132262,8.53353598 47.4592108,8.53353598 Z" id="Shape"></path>
                    </g>
                </g>
            </g>
        </g>
    </g>
</svg>