<?xml version="1.0" encoding="UTF-8"?>
<svg width="108px" height="126px" viewBox="0 0 108 126" version="1.1" xmlns="http://www.w3.org/2000/svg" xmlns:xlink="http://www.w3.org/1999/xlink">
    <!-- Generator: Sketch 54.1 (76490) - https://sketchapp.com -->
    <title>Combined Shape</title>
    <desc>Created with Sketch.</desc>
    <g id="Page-1" stroke="none" stroke-width="1" fill="none" fill-rule="evenodd">
        <g id="Desktop-HD-Copy-2" transform="translate(-666.000000, -292.000000)" fill="#FFFFFF">
            <path d="M742.5,310 L742.5,320.285714 L676.928571,320.285714 L676.928571,407.071429 L763.714286,407.071429 L763.714286,320.285714 L763.714286,310 L774,310 L774,418 L666,418 L666,310 L742.5,310 Z M702.809053,341.549263 L737.835158,341.623158 L737.835158,349.603789 L718.622526,371.476632 L738.574105,371.476632 L738.574105,381.526316 L702.144,381.526316 L702.144,373.545684 L721.356632,351.672842 L702.809053,351.672842 L702.809053,341.549263 Z M666,292 L774,292 L774,302.285714 L666,302.285714 L666,292 Z" id="Combined-Shape"></path>
        </g>
    </g>
</svg>