<?xml version="1.0" encoding="UTF-8"?>
<svg width="49px" height="83px" viewBox="0 0 49 83" version="1.1" xmlns="http://www.w3.org/2000/svg" xmlns:xlink="http://www.w3.org/1999/xlink">
    <!-- Generator: Sketch 59 (86127) - https://sketch.com -->
    <title>Group 6</title>
    <desc>Created with Sketch.</desc>
    <g id="Webpages" stroke="none" stroke-width="1" fill="none" fill-rule="evenodd">
        <g id="Desktop-HD-Copy-2" transform="translate(-417.000000, -1943.000000)" fill="#FE006A" fill-rule="nonzero">
            <g id="Group-10" transform="translate(371.000000, 1942.000000)">
                <g id="Group-6" transform="translate(46.000000, 1.000000)">
                    <path d="M40.4555833,82.5942222 L8.0925,82.5942222 C3.63009722,82.5942222 0,78.964125 0,74.5017222 L0,8.0925 C0,3.63009722 3.63009722,0 8.0925,0 L40.4544306,0 C44.9168333,0 48.5469306,3.63009722 48.5469306,8.0925 L48.5469306,74.5017222 C48.5469306,76.6631806 47.7065556,78.6955278 46.179125,80.2241111 C44.6505417,81.7526944 42.6181944,82.5942222 40.4555833,82.5942222 Z M8.0925,3.45833333 C5.53679167,3.45833333 3.45833333,5.53679167 3.45833333,8.0925 L3.45833333,74.5017222 C3.45833333,77.0574306 5.53679167,79.1358889 8.0925,79.1358889 L40.4555833,79.1358889 C43.0112917,79.1358889 45.08975,77.0574306 45.08975,74.5017222 L45.0885972,8.0925 C45.0885972,5.53679167 43.0101389,3.45833333 40.4544306,3.45833333 L8.0925,3.45833333 Z" id="Shape"></path>
                    <path d="M24.2740417,76.3219583 C20.9609583,76.3219583 18.2669167,73.6279167 18.2669167,70.3148333 C18.2669167,67.00175 20.9609583,64.3077083 24.2740417,64.3077083 C27.587125,64.3077083 30.2811667,67.00175 30.2811667,70.3148333 C30.2811667,73.6279167 27.587125,76.3219583 24.2740417,76.3219583 Z M24.2740417,67.7660417 C22.8688056,67.7660417 21.72525,68.9095972 21.72525,70.3148333 C21.72525,71.7200694 22.8688056,72.863625 24.2740417,72.863625 C25.6792778,72.863625 26.8228333,71.7200694 26.8228333,70.3148333 C26.8228333,68.9095972 25.6792778,67.7660417 24.2740417,67.7660417 Z" id="Shape"></path>
                    <path d="M26.4412639,11.4563056 L16.361375,11.4563056 C15.4057222,11.4563056 14.6322083,10.6827917 14.6322083,9.72713889 C14.6322083,8.77148611 15.4057222,7.99797222 16.361375,7.99797222 L26.4412639,7.99797222 C27.3969167,7.99797222 28.1704306,8.77148611 28.1704306,9.72713889 C28.1704306,10.6827917 27.3957639,11.4563056 26.4412639,11.4563056 Z" id="Shape"></path>
                    <path d="M32.1878611,11.4563056 L31.5815,11.4563056 C30.6258472,11.4563056 29.8523333,10.6827917 29.8523333,9.72713889 C29.8523333,8.77148611 30.6258472,7.99797222 31.5815,7.99797222 L32.1878611,7.99797222 C33.1435139,7.99797222 33.9170278,8.77148611 33.9170278,9.72713889 C33.9170278,10.6827917 33.1435139,11.4563056 32.1878611,11.4563056 Z" id="Shape"></path>
                </g>
            </g>
        </g>
    </g>
</svg>