<?xml version="1.0" encoding="UTF-8"?>
<svg width="26px" height="71px" viewBox="0 0 26 71" version="1.1" xmlns="http://www.w3.org/2000/svg" xmlns:xlink="http://www.w3.org/1999/xlink">
    <!-- Generator: Sketch 59 (86127) - https://sketch.com -->
    <title>Scroll Down</title>
    <desc>Created with Sketch.</desc>
    <g id="Webpages" stroke="none" stroke-width="1" fill="none" fill-rule="evenodd">
        <g id="Desktop-HD-Copy-2" transform="translate(-707.000000, -886.000000)">
            <g id="Scroll-Down" transform="translate(707.000000, 886.000000)">
                <g id="Group-3">
                    <rect id="Rectangle-4" stroke="#000000" stroke-width="2" x="1" y="1" width="23.9423077" height="38.9615385" rx="11.9711538"></rect>
                    <circle id="Oval-2" fill="#000000" cx="12.9711538" cy="11.6057692" r="2.04807692"></circle>
                </g>
                <path d="M12.8588261,55.8963173 C12.6706361,55.8963173 12.4902503,55.821467 12.3570451,55.6884392 L7.03469038,50.3650202 C6.75763775,50.0879676 6.75763775,49.6386882 7.03486775,49.3616356 C7.31209774,49.084583 7.76137706,49.084583 8.03825232,49.3616356 L12.8588261,54.183451 L17.6793999,49.3616356 C17.9564525,49.084583 18.4057318,49.084583 18.6827844,49.3616356 C18.959837,49.6386882 18.959837,50.0877902 18.6829618,50.3650202 L13.3606071,55.6884392 C13.2274019,55.821467 13.0470161,55.8963173 12.8588261,55.8963173 Z" id="Shape" fill="#000000" fill-rule="nonzero" transform="translate(12.858760, 52.525082) rotate(-360.000000) translate(-12.858760, -52.525082) "></path>
                <path d="M12.8588261,70.8310961 C12.6706361,70.8310961 12.4902503,70.7562458 12.3570451,70.623218 L7.03469038,65.299799 C6.75763775,65.0227464 6.75763775,64.5734671 7.03486775,64.2964145 C7.31209774,64.0193618 7.76137706,64.0193618 8.03825232,64.2964145 L12.8588261,69.1182298 L17.6793999,64.2964145 C17.9564525,64.0193618 18.4057318,64.0193618 18.6827844,64.2964145 C18.959837,64.5734671 18.959837,65.022569 18.6829618,65.299799 L13.3606071,70.623218 C13.2274019,70.7562458 13.0470161,70.8310961 12.8588261,70.8310961 Z" id="Shape-Copy" fill="#000000" fill-rule="nonzero" opacity="0.359544837" transform="translate(12.858760, 67.459861) rotate(-360.000000) translate(-12.858760, -67.459861) "></path>
            </g>
        </g>
    </g>
</svg>