<?xml version="1.0" encoding="UTF-8"?>
<svg width="85px" height="101px" viewBox="0 0 85 101" version="1.1" xmlns="http://www.w3.org/2000/svg" xmlns:xlink="http://www.w3.org/1999/xlink">
    <!-- Generator: Sketch 59 (86127) - https://sketch.com -->
    <title>Combined Shape</title>
    <desc>Created with Sketch.</desc>
    <g id="Webpages" stroke="none" stroke-width="1" fill="none" fill-rule="evenodd">
        <g id="Desktop-HD-Copy-2" transform="translate(-294.000000, -3187.000000)" fill="#A7007B" fill-rule="nonzero">
            <g id="Group-9" transform="translate(294.000000, 2988.000000)">
                <path d="M36.7586847,253.358065 C45.3826985,253.358065 52.9434777,259.879452 54.0067122,268.41654 C54.1248494,270.07653 54.1248494,271.617948 54.2429866,273.277938 C53.7704379,282.052167 51.7621059,290.352114 48.5724022,298.41492 C48.0998535,299.719197 47.0366189,300.31205 45.8552472,299.837768 C44.7920126,299.363485 44.4376011,298.296349 44.9101498,296.992072 C47.3910304,290.826397 49.1630881,284.542151 49.7537739,277.902194 C49.9900483,274.700786 50.2263226,271.499378 49.8719111,268.297969 C49.0449509,262.013724 43.1380922,257.389468 36.7586847,257.270897 C30.2611401,257.270897 24.4724186,261.895153 23.409184,268.179399 C22.9366353,270.787954 23.0547725,273.396508 22.7003609,276.005063 C22.2278122,280.273607 20.8101661,284.186439 19.1562457,288.099271 C18.683697,289.284978 17.5023252,289.64069 16.5572278,289.166407 C15.6121305,288.692125 15.1395818,287.624989 15.6121305,286.557853 C17.0297765,283.000733 18.3292855,279.443612 18.8018342,275.53078 C19.0381085,273.159367 19.0381085,270.787954 19.39252,268.535111 C20.4557546,259.879452 27.8983966,253.358065 36.7586847,253.358065 Z M37.2312334,261.065159 C42.1929948,261.3023 46.2096587,265.452273 46.445933,270.669383 L46.445933,273.040796 L46.445933,273.040796 C46.0915215,281.815026 43.728778,290.233543 40.1846628,298.177778 C39.9483884,298.770632 39.2395654,299.482056 38.6488795,299.719197 C38.1763308,299.837768 37.2312334,299.482056 36.8768219,299.126344 C36.1679988,298.53349 36.286136,297.703496 36.6405475,296.873501 C37.9400565,293.553522 39.2395654,290.233543 40.3028,286.794994 C41.8385832,281.696455 42.6655435,276.479346 42.6655435,271.143666 C42.6655435,267.586545 40.1846628,264.977991 36.8768219,264.977991 C33.568981,264.977991 31.0881003,267.586545 31.0881003,271.143666 C30.7336888,278.96933 28.6072197,286.202141 25.4175159,293.07924 C24.8268301,294.264946 23.8817327,294.620658 22.8184981,294.264946 C21.7552635,293.790664 21.400852,292.723528 21.9915379,291.41925 C24.118007,286.676423 25.8900646,281.696455 26.5988877,276.479346 C26.835162,274.345074 26.835162,272.092231 27.0714364,269.839388 C27.6621223,264.503708 31.9150606,260.828017 37.2312334,261.065159 Z M36.6405475,269.957959 C37.8219193,269.957959 38.5307423,270.906524 38.5307423,272.329372 C38.6488795,272.922226 38.6488795,273.396508 38.6488795,273.63365 C38.294468,282.289309 35.9317245,290.233543 32.3876093,297.822066 C31.7969234,299.007773 30.7336888,299.363485 29.7885914,298.889202 C28.7253568,298.41492 28.3709453,297.347784 28.9616312,296.043506 C31.0881003,291.300679 32.9782951,286.439282 33.8052554,281.340743 C34.2778041,278.376476 34.5140784,275.41221 34.7503527,272.329372 C34.8684899,270.906524 35.577313,269.957959 36.6405475,269.957959 Z M61.3312171,266.400839 C61.9219029,268.41654 61.9219029,270.313671 62.0400401,272.092231 C61.8037658,280.155036 60.2679825,287.980701 57.7871018,295.687794 C57.3145531,297.110642 56.3694557,297.703496 55.188084,297.347784 C54.0067122,296.873501 53.6523007,295.924936 54.1248494,294.383517 C56.4875929,287.269277 57.6689646,280.036462 58.0233762,272.685084 C58.3777877,261.539441 51.5258316,252.172358 41.2478974,250.038086 C27.7802594,247.19239 15.6121305,257.033756 15.2577189,270.787954 C15.1395818,274.107932 14.6670331,277.30934 13.6037985,280.510749 C13.4856613,280.74789 13.4856613,281.103602 13.3675241,281.340743 C12.8949754,282.289309 11.949878,282.763591 11.0047806,282.407879 C10.0596832,282.052167 9.35086019,281.103602 9.70527172,280.155036 C11.241055,276.005063 11.1229178,271.736519 11.5954665,267.467975 C12.7768383,256.678044 21.6371264,247.548102 32.1513349,245.888113 C46.2096587,243.63527 58.7321992,252.4095 61.3312171,266.400839 Z M44.4376011,239.129585 C57.6689646,242.449563 65.8204297,251.342364 69.0101334,264.622279 C69.2464078,265.689415 69.3645449,266.756551 69.4826821,267.942257 C69.6008193,269.127964 69.7189565,270.669383 69.7189565,272.210802 C69.6008193,278.020764 68.8919962,283.712157 67.5924873,289.403549 C67.2380758,290.826397 66.2929784,291.537821 65.2297438,291.300679 C64.0483721,291.063538 63.4576862,289.996402 63.8120977,288.692125 C65.1116066,283.000733 65.8204297,277.19077 65.8204297,271.380807 C65.8204297,256.796614 55.7787698,244.820977 41.4841717,242.212422 C25.7719275,239.366726 10.2959576,250.512369 7.9332141,266.400839 C7.81507692,267.349404 7.69693975,268.41654 7.57880257,269.365106 C7.4606654,270.787954 6.63370518,271.499378 5.45233343,271.380807 C4.38909886,271.262236 3.68027581,270.432242 3.68027581,269.127964 C4.03468733,262.132295 6.39743083,255.729478 11.0047806,250.393798 C19.8650687,239.959579 31.2062375,235.809606 44.4376011,239.129585 Z M47.5091676,231.659632 C63.5758234,236.165318 73.1449345,247.19239 76.8071869,263.436572 C77.0434613,264.503708 77.1615985,265.570844 77.2797356,266.756551 C77.3978728,268.772252 77.3978728,270.906524 77.51601,273.040796 C77.3978728,274.463644 77.3978728,276.005063 77.2797356,277.427911 C77.1615985,278.850759 76.3346382,279.680754 75.2714037,279.680754 C74.0900319,279.680754 73.2630717,278.613618 73.3812089,277.19077 C73.7356204,272.329372 73.7356204,267.467975 72.6723858,262.606577 C69.3645449,247.903814 56.7238672,236.165318 41.7204461,234.268187 C25.8900646,232.252486 11.4773293,239.722438 3.91655016,253.832348 C3.20772711,255.136625 2.38076689,255.492337 1.31753231,255.255196 C0.136160568,254.899484 -0.336388131,253.595206 0.254297743,252.4095 C1.90821819,249.208092 3.91655016,246.125254 6.39743083,243.516699 C17.8567368,231.541062 31.6787862,227.153947 47.5091676,231.659632 Z M83.8954174,258.930887 L83.8954174,259.879452 L83.8954174,259.879452 C83.8954174,261.065159 83.3047315,261.776583 82.3596341,262.013724 C81.4145367,262.250865 80.4694394,261.658012 80.1150278,260.590876 C79.7606163,259.286599 79.4062048,257.982321 78.9336561,256.678044 C72.6723858,239.603867 60.622394,229.288219 42.6655435,226.679664 C27.7802594,224.426821 15.0214446,229.288219 4.38909886,239.959579 C4.15282451,240.196721 4.03468733,240.315291 3.91655016,240.552433 C2.97145276,241.500998 1.90821819,241.619569 0.963120791,240.789574 C0.136160568,239.959579 0.136160568,238.892443 1.08125797,237.825307 C5.92488213,232.608198 11.5954665,228.576795 18.2111483,225.84967 C45.5008356,214.466885 76.5709126,230.118214 83.8954174,258.930887 Z M38.8851539,214.348315 C56.9601416,215.059739 73.0267973,223.596827 84.2498289,240.789574 C84.4861033,241.145286 84.6042405,241.382427 84.8405148,241.738139 C85.1949263,242.686705 84.958652,243.63527 84.1316918,244.109553 C83.3047315,244.583835 82.3596341,244.465265 81.6508111,243.753841 C81.5326739,243.516699 81.2963996,243.398129 81.1782624,243.160987 C72.5542486,229.762502 60.3861197,221.462555 44.6738754,218.972571 C31.2062375,216.838299 18.8018342,219.802565 7.34252822,227.272518 C6.9881167,227.509659 6.63370518,227.7468 6.27929365,227.865371 C5.45233343,228.339654 4.38909886,227.983942 3.79841298,227.272518 C3.20772711,226.442523 3.32586428,225.493958 4.03468733,224.782534 C4.27096168,224.545392 4.62537321,224.308251 4.97978473,224.071109 C14.6670331,217.668293 25.1812416,214.466885 38.8851539,214.348315 Z M69.6008193,215.889733 C73.3812089,218.142576 76.9253241,220.869701 80.233165,223.952539 C80.4694394,224.071109 80.7057137,224.308251 80.8238509,224.663963 C81.1782624,225.256816 81.1782624,226.086811 80.7057137,226.561094 C80.4694394,226.798235 80.233165,227.153947 79.9968907,227.272518 C79.1699304,227.7468 78.4611074,227.391088 77.7522843,226.798235 C75.7439524,225.138246 73.8537576,223.359685 71.8454256,221.936837 C59.7954338,213.281178 46.3277959,209.605488 31.560649,210.791194 C25.2993788,211.265477 19.2743829,212.806896 13.3675241,215.29688 C12.0680152,215.771163 11.241055,215.652592 10.6503691,214.822597 C9.94154607,213.755461 10.4140948,212.451184 11.8317409,211.85833 C16.3209535,209.9612 21.0464405,208.538352 25.8900646,207.708357 C41.4841717,205.099802 56.0150442,207.945498 69.6008193,215.889733 Z M36.6405475,199.052698 C47.745442,198.934127 58.3777877,201.305541 68.3013104,206.285509 C68.5375847,206.40408 68.6557219,206.52265 68.8919962,206.52265 C70.073368,207.115504 70.5459167,208.30121 70.073368,209.368346 C69.6008193,210.435482 68.4194475,210.672624 67.2380758,210.07977 C61.2130799,207.115504 54.9518096,204.981232 48.3361278,203.795525 C41.011623,202.491248 33.568981,202.491248 26.2444762,203.558384 C25.8900646,203.558384 25.5356531,203.676954 25.2993788,203.676954 C24.118007,203.795525 23.2910468,203.084101 23.1729096,202.135536 C22.9366353,200.949829 23.6454583,200.001263 24.8268301,199.882693 C27.0714364,199.526981 29.1979055,199.171269 31.4425119,199.052698 C33.2145695,198.934127 34.9866271,199.052698 36.6405475,199.052698 Z" id="Combined-Shape"></path>
            </g>
        </g>
    </g>
</svg>