<?xml version="1.0" encoding="UTF-8"?>
<svg width="15px" height="12px" viewBox="0 0 15 12" version="1.1" xmlns="http://www.w3.org/2000/svg" xmlns:xlink="http://www.w3.org/1999/xlink">
    <!-- Generator: Sketch 59 (86127) - https://sketch.com -->
    <title>Path</title>
    <desc>Created with Sketch.</desc>
    <g id="Webpages" stroke="none" stroke-width="1" fill="none" fill-rule="evenodd">
        <g id="Desktop-HD-Copy-2" transform="translate(-667.000000, -1570.000000)" fill="#3498DB">
            <path d="M680.710938,1572.9823 C680.59375,1578.16039 677.195312,1581.76255 672.039062,1581.98768 C669.929688,1582.10025 668.40625,1581.42484 667,1580.63687 C668.523438,1580.86201 670.515625,1580.29917 671.570312,1579.39863 C670.046875,1579.28607 669.109375,1578.4981 668.640625,1577.25986 C669.109375,1577.37242 669.578125,1577.25986 669.929688,1577.25986 C668.523438,1576.80959 667.585938,1576.02162 667.46875,1574.22054 C667.820312,1574.44568 668.289062,1574.55824 668.757812,1574.55824 C667.703125,1573.99541 667,1571.85663 667.820312,1570.50582 C669.34375,1572.08176 671.21875,1573.43257 674.265625,1573.65771 C673.445312,1570.50582 677.898438,1568.81731 679.65625,1570.95609 C680.476562,1570.84352 681.0625,1570.50582 681.648438,1570.28069 C681.414062,1571.06866 680.945312,1571.51893 680.359375,1571.9692 C680.945312,1571.85663 681.53125,1571.74406 682,1571.51893 C681.882812,1572.08176 681.296875,1572.53203 680.710938,1572.9823 L680.710938,1572.9823 Z" id="Path"></path>
        </g>
    </g>
</svg>