<?xml version="1.0" encoding="UTF-8"?>
<svg width="102px" height="25px" viewBox="0 0 102 25" version="1.1" xmlns="http://www.w3.org/2000/svg" xmlns:xlink="http://www.w3.org/1999/xlink">
    <!-- Generator: Sketch 59 (86127) - https://sketch.com -->
    <title>zio</title>
    <desc>Created with Sketch.</desc>
    <g id="Webpages" stroke="none" stroke-width="1" fill="none" fill-rule="evenodd">
        <g id="Desktop-HD-Copy-2" transform="translate(-205.000000, -49.000000)" fill="#FFFFFF" fill-rule="nonzero">
            <path d="M215.803636,72.852952 L215.803636,72.852952 C215.803636,73.256815 215.481173,73.5842104 215.083394,73.5842104 L206.440485,73.5842104 C205.644927,73.5842104 205,72.9294196 205,72.1216937 L213.935837,51.4993154 C214.06512,51.2009532 213.931698,50.8526759 213.637829,50.7214159 C213.564055,50.6884638 213.48434,50.6714477 213.403741,50.6714477 L206.166107,50.6714477 C205.768328,50.6714477 205.445864,50.3440523 205.445864,49.9401894 L205.445864,49.9401894 C205.445864,49.5363264 205.768328,49.208931 206.166107,49.208931 L214.466043,49.208931 C215.280545,49.208931 215.940826,49.8793125 215.940826,50.7062696 L207.005714,71.2935025 C206.876255,71.5917857 207.009472,71.9401444 207.303261,72.0715827 C207.377123,72.104628 207.456953,72.1216937 207.537668,72.1216937 L215.083394,72.1216937 C215.481173,72.1216937 215.803636,72.4490891 215.803636,72.852952 Z M219.301957,56.2913366 L219.301957,56.2913366 C219.737619,56.2913366 220.090794,56.6499129 220.090794,57.0922387 L220.090794,72.7833084 C220.090794,73.2256341 219.737619,73.5842104 219.301957,73.5842104 L219.301957,73.5842104 C218.866294,73.5842104 218.51312,73.2256341 218.51312,72.7833084 L218.51312,57.0922387 C218.51312,56.6499129 218.866294,56.2913366 219.301957,56.2913366 Z M219.301957,49.208931 L219.301957,49.208931 C219.737619,49.208931 220.090794,49.5675073 220.090794,50.009833 L220.090794,51.7403008 C220.090794,52.1826265 219.737619,52.5412028 219.301957,52.5412028 L219.301957,52.5412028 C218.866294,52.5412028 218.51312,52.1826265 218.51312,51.7403008 L218.51312,50.009833 C218.51312,49.5675073 218.866294,49.208931 219.301957,49.208931 Z M222.731683,67.6296779 L222.731683,55.1634635 C222.731683,51.6116371 224.343654,49 227.979163,49 C231.683267,49 233.295238,51.6116371 233.295238,55.1634635 L233.295238,67.6296779 C233.295238,71.1815043 231.683267,73.7931414 227.979163,73.7931414 C224.343654,73.7931414 222.731683,71.1815043 222.731683,67.6296779 Z M224.309357,55.058998 L224.309357,67.7341434 C224.309357,70.3806023 225.338274,72.3306246 227.979163,72.3306246 C230.65435,72.3306246 231.717565,70.3806023 231.717565,67.7341434 L231.717565,55.058998 C231.717565,52.4125391 230.65435,50.4625168 227.979163,50.4625168 C225.338274,50.4625168 224.309357,52.4125391 224.309357,55.058998 Z M228.021599,59.242339 L228.021599,59.242339 C228.457261,59.242339 228.810436,59.6009153 228.810436,60.043241 L228.810436,61.7737088 C228.810436,62.2160345 228.457261,62.5746108 228.021599,62.5746108 L228.021599,62.5746108 C227.585937,62.5746108 227.232762,62.2160345 227.232762,61.7737088 L227.232762,60.043241 C227.232762,59.6009153 227.585937,59.242339 228.021599,59.242339 Z M242.149263,49.4157896 L246.431041,49.4157896 L246.431041,49.4157896 C250.135145,49.4157896 251.747116,51.8881394 251.747116,55.4747876 L251.747116,67.732071 C251.747116,71.3187193 250.135145,73.791069 246.431041,73.791069 L242.149263,73.791069 C241.596979,73.791069 241.149263,73.3433538 241.149263,72.791069 L241.149263,50.4157896 C241.149263,49.8635048 241.596979,49.4157896 242.149263,49.4157896 Z M243.726937,72.3285523 L246.396744,72.3285523 L246.396744,72.3285523 C249.07193,72.3285523 250.169442,70.4829954 250.169442,67.8017147 L250.169442,55.405144 C250.169442,52.7238632 249.037633,50.8783063 246.396744,50.8783063 C244.369966,50.8783063 242.726937,52.5213348 242.726937,54.548113 L242.726937,71.3285523 C242.726937,71.880837 243.174652,72.3285523 243.726937,72.3285523 Z M255.931382,60.6980618 L261.7509,60.6980618 C262.154763,60.6980618 262.482158,61.0254573 262.482158,61.4293202 C262.482158,61.833183 262.154763,62.1605786 261.7509,62.1605786 L255.931382,62.1605786 L255.931382,62.1605786 L255.931382,72.3285523 L263.088493,72.3285523 C263.492356,72.3285523 263.819751,72.6559478 263.819751,73.0598106 C263.819751,73.4636735 263.492356,73.791069 263.088493,73.791069 L254.353708,73.791069 L254.353708,73.791069 L254.353708,49.4157896 L263.088493,49.4157896 C263.492356,49.4157896 263.819751,49.7431851 263.819751,50.147048 C263.819751,50.5509108 263.492356,50.8783063 263.088493,50.8783063 L255.931382,50.8783063 L255.931382,50.8783063 L255.931382,60.6980618 Z M271.399445,49.2068586 C275.034955,49.2068586 276.509737,51.7836739 276.509737,55.3006785 C276.509737,55.5891519 276.275883,55.8230059 275.98741,55.8230059 L275.627451,55.8230059 C275.281282,55.8230059 275.000658,55.5423812 275.000658,55.196213 L275.000658,55.196213 L275.000658,55.196213 C275.000658,52.6193977 274.040334,50.6693754 271.433743,50.6693754 C268.827151,50.6693754 267.866828,52.5845759 267.866828,55.1613912 C267.866828,61.0811019 276.544034,61.1855674 276.544034,67.9061801 C276.544034,71.4231847 275.034955,74 271.365148,74 C267.695342,74 266.186262,71.4231847 266.186262,67.9061801 L266.186262,67.407134 C266.186262,66.9904133 266.524081,66.6525943 266.940802,66.6525943 C267.357523,66.6525943 267.695342,66.9904133 267.695342,67.407134 L267.695342,68.0106456 L267.695342,68.0106456 C267.695342,70.6222827 268.689962,72.5026614 271.330851,72.5026614 C273.97174,72.5026614 274.96636,70.6222827 274.96636,68.0106456 C274.96636,62.1605786 266.289154,62.0561131 266.289154,55.2658566 C266.289154,51.6095647 267.866828,49.2416804 271.399445,49.2068586 Z M279.870868,49.4157896 C280.306531,49.4157896 280.659705,49.7689639 280.659705,50.2046265 L280.659705,73.0022321 C280.659705,73.4378947 280.306531,73.791069 279.870868,73.791069 C279.435206,73.791069 279.082031,73.4378947 279.082031,73.0022321 L279.082031,50.2046265 C279.082031,49.7689639 279.435206,49.4157896 279.870868,49.4157896 Z M288.47948,49.2068586 C292.149287,49.2068586 293.658366,51.8533175 293.658366,55.3703221 L293.658366,56.4265175 C293.658366,56.8432383 293.320547,57.1810572 292.903827,57.1810572 C292.487106,57.1810572 292.149287,56.8432383 292.149287,56.4265175 L292.149287,55.2658566 L292.149287,55.2658566 C292.149287,52.6542196 291.154666,50.6693754 288.513778,50.6693754 C285.872889,50.6693754 284.878268,52.6542196 284.878268,55.2658566 L284.878268,67.941002 C284.878268,70.552639 285.872889,72.5026614 288.513778,72.5026614 C291.154666,72.5026614 292.149287,70.552639 292.149287,67.941002 L292.149287,62.682906 L289.6909,62.682906 C289.287037,62.682906 288.959642,62.3555104 288.959642,61.9516476 C288.959642,61.5477847 289.287037,61.2203892 289.6909,61.2203892 L293.658366,61.2203892 L293.658366,61.2203892 L293.658366,67.8365365 C293.658366,71.3535411 292.149287,74 288.47948,74 C284.809674,74 283.300594,71.3535411 283.300594,67.8365365 L283.300594,55.3703221 C283.300594,51.8533175 284.809674,49.2068586 288.47948,49.2068586 Z M297.73974,52.0622485 L297.73974,73.0708266 C297.73974,73.4686055 297.417277,73.791069 297.019498,73.791069 C296.621719,73.791069 296.299255,73.4686055 296.299255,73.0708266 L296.299255,49.4157896 L296.299255,49.4157896 C297.531791,49.4157896 298.629713,50.1947609 299.036858,51.3581087 L305.559515,69.9954898 L305.559515,69.9954898 L305.559515,50.136032 C305.559515,49.7382531 305.881979,49.4157896 306.279758,49.4157896 C306.677536,49.4157896 307,49.7382531 307,50.136032 L307,72.9164889 C307,73.3995062 306.608437,73.791069 306.12542,73.791069 C305.601986,73.791069 305.136118,73.4591919 304.965109,72.9644806 L297.73974,52.0622485 L297.73974,52.0622485 Z" id="zio"></path>
        </g>
    </g>
</svg>