<?xml version="1.0" encoding="UTF-8"?>
<svg width="100px" height="25px" viewBox="0 0 100 25" version="1.1" xmlns="http://www.w3.org/2000/svg" xmlns:xlink="http://www.w3.org/1999/xlink">
    <!-- Generator: Sketch 59 (86127) - https://sketch.com -->
    <title>Group 5</title>
    <desc>Created with Sketch.</desc>
    <g id="Webpages" stroke="none" stroke-width="1" fill="none" fill-rule="evenodd">
        <g id="Desktop-HD-Copy-2" transform="translate(-205.000000, -49.000000)" fill="#000000" fill-rule="nonzero">
            <g id="Group-5" transform="translate(205.000000, 49.000000)">
                <path d="M10.9912011,23.6982609 L10.9912011,23.6982609 C10.9912011,24.0995047 10.6631387,24.4247769 10.2584543,24.4247769 L1.46549348,24.4247769 C0.656123549,24.4247769 0,23.7742326 0,22.9717449 L9.09097411,2.48310689 C9.22250186,2.18667955 9.08676333,1.8406609 8.78779202,1.71025215 C8.71273723,1.67751378 8.63163831,1.66060806 8.54964046,1.66060806 L1.18635186,1.66060806 C0.781666899,1.66060806 0.453605124,1.33533587 0.453605124,0.934092036 L0.453605124,0.934092036 C0.453605124,0.532848199 0.781666899,0.207576008 1.18635186,0.207576008 L9.63038572,0.207576008 C10.4590282,0.207576008 11.1307719,0.873610016 11.1307719,1.69520406 L2.04053526,22.1489247 C1.90882891,22.4452735 2.04435867,22.7913731 2.34324896,22.9219589 C2.41839306,22.9547899 2.49960848,22.9717449 2.58172461,22.9717449 L10.2584543,22.9717449 C10.6631387,22.9717449 10.9912011,23.2970171 10.9912011,23.6982609 Z M14.5502567,7.24405085 L14.5502567,7.24405085 C14.9934827,7.24405085 15.3527888,7.60030171 15.3527888,8.03975888 L15.3527888,23.6290689 C15.3527888,24.0685261 14.9934827,24.4247769 14.5502567,24.4247769 L14.5502567,24.4247769 C14.1070307,24.4247769 13.7477245,24.0685261 13.7477245,23.6290689 L13.7477245,8.03975888 C13.7477245,7.60030171 14.1070307,7.24405085 14.5502567,7.24405085 Z M14.5502567,0.207576008 L14.5502567,0.207576008 C14.9934827,0.207576008 15.3527888,0.563826866 15.3527888,1.00328404 L15.3527888,2.72252939 C15.3527888,3.16198656 14.9934827,3.51823742 14.5502567,3.51823742 L14.5502567,3.51823742 C14.1070307,3.51823742 13.7477245,3.16198656 13.7477245,2.72252939 L13.7477245,1.00328404 C13.7477245,0.563826866 14.1070307,0.207576008 14.5502567,0.207576008 Z M18.0395269,18.5088607 L18.0395269,6.12349223 C18.0395269,2.5947001 19.6794839,0 23.3781103,0 C27.1465221,0 28.786479,2.5947001 28.786479,6.12349223 L28.786479,18.5088607 C28.786479,22.0376528 27.1465221,24.6323529 23.3781103,24.6323529 C19.6794839,24.6323529 18.0395269,22.0376528 18.0395269,18.5088607 Z M19.6445912,6.01970423 L19.6445912,18.6126487 C19.6445912,21.2419448 20.6913722,23.1793209 23.3781103,23.1793209 C26.099741,23.1793209 27.1814148,21.2419448 27.1814148,18.6126487 L27.1814148,6.01970423 C27.1814148,3.39040813 26.099741,1.45303206 23.3781103,1.45303206 C20.6913722,1.45303206 19.6445912,3.39040813 19.6445912,6.01970423 Z M23.4212826,10.1759154 L23.4212826,10.1759154 C23.8645086,10.1759154 24.2238147,10.5321662 24.2238147,10.9716234 L24.2238147,12.6908688 C24.2238147,13.1303259 23.8645086,13.4865768 23.4212826,13.4865768 L23.4212826,13.4865768 C22.9780566,13.4865768 22.6187504,13.1303259 22.6187504,12.6908688 L22.6187504,10.9716234 C22.6187504,10.5321662 22.9780566,10.1759154 23.4212826,10.1759154 Z M39.0000748,0.207576008 L39.0000748,0.207576008 C39.4788941,0.207576008 39.8931884,0.537970206 39.9958343,1.00168189 L44.7748169,22.5911889 L49.5687601,0.934098001 C49.6626696,0.509850815 50.0417042,0.207576008 50.4797737,0.207576008 L50.4797737,0.207576008 C50.8137823,0.207576008 51.0845496,0.476040978 51.0845496,0.807209411 C51.0845496,0.849989156 51.079933,0.892646026 51.0707778,0.934451118 L45.9262761,24.4247769 L43.5535724,24.4247769 L38.3562779,1.00159361 C38.2780557,0.649057967 38.5028802,0.300398272 38.8584393,0.222841195 C38.9049561,0.21269383 38.952445,0.207576008 39.0000748,0.207576008 Z M54.474988,0.207576008 L54.474988,0.207576008 C54.9182144,0.207576008 55.2775202,0.563826542 55.2775202,1.00328404 L55.2775202,23.6290689 C55.2775202,24.0685264 54.9182144,24.4247769 54.474988,24.4247769 L54.474988,24.4247769 C54.0317617,24.4247769 53.6724559,24.0685264 53.6724559,23.6290689 L53.6724559,1.00328404 C53.6724559,0.563826542 54.0317617,0.207576008 54.474988,0.207576008 Z M63.1632708,0 C66.8618972,0 68.3622834,2.5601041 68.3622834,6.05430023 L68.3622834,6.05430023 C68.3622834,6.34090305 68.1279488,6.57324025 67.8388929,6.57324025 L67.4550731,6.57324025 C67.1082036,6.57324025 66.8270045,6.29443585 66.8270045,5.95051223 C66.8270045,3.39040813 65.8500089,1.45303206 63.1981635,1.45303206 C60.5463182,1.45303206 59.5693225,3.35581213 59.5693225,5.91591623 C59.5693225,11.7972365 68.3971761,11.9010245 68.3971761,18.5780527 C68.3971761,22.0722488 66.8618972,24.6323529 63.1283781,24.6323529 C59.394859,24.6323529 57.8595801,22.0722488 57.8595801,18.5780527 L57.8595801,18.0937087 C57.8595801,17.6733577 58.2032636,17.3325967 58.6272196,17.3325967 L58.6272196,17.3325967 C59.0511779,17.3325967 59.394859,17.6733577 59.394859,18.0937087 L59.394859,18.6818407 C59.394859,21.2765408 60.4067474,23.1447249 63.0934854,23.1447249 C65.7802234,23.1447249 66.7921118,21.2765408 66.7921118,18.6818407 C66.7921118,12.8697125 57.9642582,12.7659245 57.9642582,6.01970423 C57.9642582,2.38712409 59.5693225,0.0345960013 63.1632708,0 Z M71.7817682,0.207576008 L71.7817682,0.207576008 C72.2249897,0.207576008 72.5843003,0.563826542 72.5843003,1.00328404 L72.5843003,23.6290689 C72.5843003,24.0685264 72.2249897,24.4247769 71.7817682,24.4247769 L71.7817682,24.4247769 C71.3385466,24.4247769 70.979236,24.0685264 70.979236,23.6290689 L70.979236,1.00328404 C70.979236,0.563826542 71.3385466,0.207576008 71.7817682,0.207576008 Z M75.2710384,18.5088607 L75.2710384,6.12349223 C75.2710384,2.5947001 76.9109953,0 80.6096217,0 C84.3780335,0 86.0179905,2.5947001 86.0179905,6.12349223 L86.0179905,18.5088607 C86.0179905,22.0376528 84.3780335,24.6323529 80.6096217,24.6323529 C76.9109953,24.6323529 75.2710384,22.0376528 75.2710384,18.5088607 Z M76.8761026,6.01970423 L76.8761026,18.6126487 C76.8761026,21.2419448 77.9228837,23.1793209 80.6096217,23.1793209 C83.3312525,23.1793209 84.4129262,21.2419448 84.4129262,18.6126487 L84.4129262,6.01970423 C84.4129262,3.39040813 83.3312525,1.45303206 80.6096217,1.45303206 C77.9228837,1.45303206 76.8761026,3.39040813 76.8761026,6.01970423 Z M90.1353294,2.83687211 L90.1353294,23.6982609 C90.1353294,24.0995041 89.8072658,24.4247769 89.4025826,24.4247769 L89.4025826,24.4247769 C88.9978995,24.4247769 88.6698359,24.0995041 88.6698359,23.6982609 L88.6698359,0.207576008 L88.6698359,0.207576008 C89.9249384,0.207576008 91.0441278,0.990927301 91.4643683,2.16352656 L98.0908654,20.6538128 L98.0908654,0.934092036 C98.0908654,0.532848805 98.418929,0.207576008 98.8236121,0.207576008 L98.8236121,0.207576008 C99.2282953,0.207576008 99.5563589,0.532848805 99.5563589,0.934092036 L99.5563589,23.5425789 C99.5563589,24.0298039 99.1579925,24.4247769 98.666595,24.4247769 L98.666595,24.4247769 C98.1335789,24.4247769 97.6586892,24.0910186 97.4821802,23.5923566 L90.1353294,2.83687211 Z" id="zio"></path>
            </g>
        </g>
    </g>
</svg>